<svg width="20" height="20" viewBox="0 0 20 20" fill="none" xmlns="http://www.w3.org/2000/svg">
    <g id="Layer 2">
        <g id="Layer 1">
            <g id="Layer 2_2">
                <g id="Logo">
                    <path id="Vector"
                        d="M19.3835 13.4444C19.3835 13.4555 19.3818 13.4666 19.3787 13.4773C19.3776 13.481 19.3762 13.4846 19.3747 13.4882C19.1107 14.1972 18.7668 14.8738 18.3495 15.5048L18.3473 15.5079C18.3371 15.5226 18.3235 15.5346 18.3076 15.5429C18.2917 15.5512 18.2741 15.5555 18.2562 15.5555H10C6.93179 15.5555 4.44446 13.0682 4.44446 10C4.44446 6.93182 6.93179 4.44452 10 4.44452H18.2562C18.2741 4.44452 18.2917 4.44885 18.3076 4.45713C18.3235 4.46541 18.3371 4.4774 18.3473 4.49207L18.3495 4.49519C18.7667 5.12608 19.1106 5.80243 19.3747 6.51116C19.3762 6.5147 19.3776 6.51834 19.3787 6.52205C19.3818 6.53272 19.3835 6.5438 19.3835 6.55494C19.3835 6.5844 19.3718 6.61267 19.351 6.6335C19.3302 6.65434 19.3019 6.66605 19.2724 6.66605H10C9.11595 6.66563 8.26794 7.01642 7.64253 7.64124C7.01712 8.26607 6.66553 9.11374 6.66512 9.99778C6.66471 10.8818 7.0155 11.7298 7.64033 12.3552C8.26516 12.9806 9.11284 13.3322 9.99689 13.3326H19.2724C19.3019 13.3326 19.3302 13.3443 19.351 13.3652C19.3718 13.386 19.3835 13.4143 19.3835 13.4437V13.4444Z"
                        fill="white" />
                    <path id="Vector_2"
                        d="M20 10C20 10.3362 19.9833 10.6717 19.9498 11.0067V11.0162C19.9459 11.0426 19.9327 11.0666 19.9126 11.0841C19.8924 11.1015 19.8667 11.1111 19.84 11.1111H10.0001C9.70537 11.1111 9.42276 10.994 9.21438 10.7857C9.00601 10.5773 8.88895 10.2947 8.88895 10C8.88895 9.70533 9.00601 9.42272 9.21438 9.21435C9.42276 9.00598 9.70537 8.88892 10.0001 8.88892H19.8392C19.8658 8.88895 19.8915 8.89855 19.9117 8.91597C19.9318 8.93338 19.945 8.95746 19.9489 8.9838V8.99336C19.983 9.32787 20 9.66342 20 10Z"
                        fill="white" />
                    <path id="Vector_3"
                        d="M16.0749 17.8887C16.0749 17.905 16.0714 17.921 16.0644 17.9358C16.0575 17.9505 16.0475 17.9636 16.035 17.974C16.0321 17.9765 16.029 17.9788 16.0258 17.9809C14.4442 19.1789 12.5404 19.8766 10.5592 19.9844C4.65697 20.3109 -0.262137 15.4356 0.0109741 9.53011C0.256307 4.22529 4.63474 1.30124e-05 10.0001 1.30124e-05C12.1751 -0.00350281 14.2915 0.705525 16.0254 2.01865C16.0288 2.0209 16.0321 2.02335 16.0352 2.02599C16.0526 2.04064 16.0652 2.06031 16.0711 2.08232C16.077 2.10434 16.076 2.12764 16.0682 2.14906C16.0604 2.17048 16.0462 2.18899 16.0275 2.20207C16.0089 2.21516 15.9866 2.22219 15.9638 2.22221H10.0001C5.70452 2.22221 2.2223 5.70438 2.2223 9.99988C2.2223 14.2954 5.70452 17.7776 10.0001 17.7776H15.9638C15.9933 17.7776 16.0216 17.7893 16.0424 17.8101C16.0632 17.8309 16.0749 17.8592 16.0749 17.8887Z"
                        fill="white" />
                </g>
            </g>
        </g>
    </g>
</svg>
